<svg width="533.3" height="533.3" xmlns="http://www.w3.org/2000/svg">

 <g>
  <title>background</title>
  <rect fill="none" id="canvas_background" height="402" width="582" y="-1" x="-1"/>
 </g>
 <g>
  <title>Layer 1</title>
  <path fill="#fcfcfc" id="svg_3" d="m266.7,0c-147.3,0 -266.7,119.4 -266.7,266.7c0,147.3 119.4,266.7 266.7,266.7c147.3,0 266.7,-119.4 266.7,-266.7c-0.1,-147.3 -119.5,-266.7 -266.7,-266.7zm25.8,356.3c-24.2,-1.9 -34.4,-13.9 -53.4,-25.4c-10.4,54.8 -23.2,107.3 -61,134.7c-11.7,-82.8 17.1,-145 30.5,-211c-22.8,-38.4 2.7,-115.6 50.8,-96.6c59.2,23.4 -51.3,142.7 22.9,157.6c77.4,15.6 109,-134.3 61,-183c-69.3,-70.4 -201.8,-1.6 -185.5,99.1c4,24.6 29.4,32.1 10.2,66.1c-44.4,-9.8 -57.6,-44.8 -55.9,-91.5c2.7,-76.4 68.6,-129.9 134.7,-137.3c83.6,-9.4 162,30.7 172.9,109.3c12.1,88.8 -37.8,184.9 -127.2,178z"/>
 </g>
</svg>