<svg xmlns="http://www.w3.org/2000/svg" width="256" height="256" viewBox="0 0 100 100"><path d="M34.81 64.65L34.81 14.45L40.43 14.45L40.43 64.40Q40.43 74.66 35.45 80.59Q30.47 86.52 22.22 86.52L22.22 86.52Q13.53 86.52 8.79 81.13Q4.05 75.73 4.05 65.97L4.05 65.97L9.62 65.97Q9.62 73.68 12.96 77.51Q16.31 81.35 22.22 81.35L22.22 81.35Q27.88 81.35 31.32 76.81Q34.77 72.27 34.81 64.65L34.81 64.65ZM90.28 68.07L90.28 68.07Q90.28 62.11 86.89 58.69Q83.50 55.27 74.22 52.15Q64.94 49.02 60.60 45.17L60.60 45.17Q54.88 40.14 54.88 31.88L54.88 31.88Q54.88 23.73 60.50 18.60Q66.11 13.48 75 13.48L75 13.48Q84.08 13.48 89.84 19.43Q95.61 25.39 95.61 34.77L95.61 34.77L89.99 34.77Q89.99 27.59 85.96 23.17Q81.93 18.75 75 18.75L75 18.75Q68.26 18.75 64.38 22.39Q60.50 26.03 60.50 31.79L60.50 31.79Q60.50 37.16 64.16 40.58Q67.82 43.99 75.83 46.66Q83.84 49.32 87.94 52.17Q92.04 55.03 93.99 58.89Q95.95 62.74 95.95 67.97L95.95 67.97Q95.95 76.32 90.31 81.42Q84.67 86.52 75.39 86.52L75.39 86.52Q69.14 86.52 63.99 83.96Q58.84 81.40 55.93 76.59Q53.03 71.78 53.03 65.23L53.03 65.23L58.59 65.23Q58.59 72.75 63.13 77.05Q67.68 81.35 75.39 81.35L75.39 81.35Q82.13 81.35 86.21 77.73Q90.28 74.12 90.28 68.07Z" fill="#fff"></path></svg>